<svg viewBox="0 0 100 100" xmlns="http://www.w3.org/2000/svg">
  <title>LithoQuest</title>
  <defs>
    <clipPath id="lqclip">
      <polygon points="50,6 88.1,28 88.1,72 50,94 11.9,72 11.9,28"/>
    </clipPath>
  </defs>
  <polygon points="50,6 88.1,28 88.1,72 50,94 11.9,72 11.9,28" fill="#08090b"/>
  <g clip-path="url(#lqclip)">
    <rect x="0" y="18" width="100" height="11" fill="#c8831e" fill-opacity="0.07"/>
    <rect x="0" y="32" width="100" height="9" fill="#1ab3bc" fill-opacity="0.055"/>
    <rect x="0" y="44" width="100" height="12" fill="#c8831e" fill-opacity="0.1"/>
    <rect x="0" y="60" width="100" height="8" fill="#1ab3bc" fill-opacity="0.06"/>
    <rect x="0" y="72" width="100" height="10" fill="#c8831e" fill-opacity="0.07"/>
    <line x1="0" y1="29" x2="100" y2="30" stroke="#c8831e" stroke-opacity="0.3" stroke-width="0.5"/>
    <line x1="0" y1="41" x2="100" y2="40" stroke="#1ab3bc" stroke-opacity="0.22" stroke-width="0.5"/>
    <line x1="0" y1="56" x2="100" y2="57" stroke="#c8831e" stroke-opacity="0.35" stroke-width="0.5"/>
    <line x1="0" y1="68" x2="100" y2="68" stroke="#1ab3bc" stroke-opacity="0.22" stroke-width="0.5"/>
    <line x1="0" y1="82" x2="100" y2="81" stroke="#c8831e" stroke-opacity="0.25" stroke-width="0.5"/>
    <line x1="50" y1="6" x2="50" y2="94" stroke="#c8831e" stroke-opacity="0.32" stroke-width="0.7"/>
    <line x1="11.9" y1="50" x2="88.1" y2="50" stroke="#c8831e" stroke-opacity="0.14" stroke-width="0.5"/>
    <polygon points="50,36 64,50 50,64 36,50" fill="none" stroke="#c8831e" stroke-opacity="0.18" stroke-width="0.5"/>
    <polygon points="50,41 59,50 50,59 41,50" fill="#c8831e" fill-opacity="0.92"/>
    <polygon points="50,44 56,50 50,56 44,50" fill="#e8a84a" fill-opacity="0.35"/>
    <circle cx="30" cy="30" r="1.6" fill="#1ab3bc" fill-opacity="0.55"/>
    <circle cx="70" cy="41" r="1.3" fill="#c8831e" fill-opacity="0.5"/>
    <circle cx="37" cy="57" r="1.5" fill="#1ab3bc" fill-opacity="0.5"/>
    <circle cx="65" cy="68" r="1.2" fill="#c8831e" fill-opacity="0.42"/>
    <circle cx="72" cy="30" r="1.0" fill="#c8831e" fill-opacity="0.32"/>
    <circle cx="26" cy="67" r="1.0" fill="#1ab3bc" fill-opacity="0.35"/>
  </g>
  <polygon points="50,6 88.1,28 88.1,72 50,94 11.9,72 11.9,28" fill="none" stroke="#c8831e" stroke-width="1.5" stroke-linejoin="round"/>
  <polygon points="50,3 90.7,26.5 90.7,73.5 50,97 9.3,73.5 9.3,26.5" fill="none" stroke="#c8831e" stroke-opacity="0.2" stroke-width="0.5" stroke-linejoin="round"/>
</svg>
